# xmcd CD database file
#
# Track frame offsets:
#	150
#	25322
#	50182
#	72725
#	94345
#	112382
#	148432
#	176517
#	198232
#	224035
#	254112
#
# Disc length: 3791 seconds
#
# Revision: 15
# Processed by: cddbd v1.5.2PL0 Copyright (c) Steve Scherf et al.
# Submitted via: CDex 1.70beta3
#
DISCID=c70ecd0b
DTITLE=????? - ??-Time goes around-
DYEAR=1993
DGENRE=JPop
TTITLE0=??
TTITLE1=???
TTITLE2=?????
TTITLE3=??????
TTITLE4=?????
TTITLE5=?????????
TTITLE6=????
TTITLE7=?????
TTITLE8=??
TTITLE9=????? 1st.
TTITLE10=?????
EXTD=YEAR: 1993
EXTT0=
EXTT1=
EXTT2=
EXTT3=
EXTT4=
EXTT5=
EXTT6=
EXTT7=
EXTT8=
EXTT9=
EXTT10=
PLAYORDER=
